<svg xmlns="http://www.w3.org/2000/svg" viewBox="0 0 64 64">
<rect width="64" height="64" rx="15" fill="#f7c7c5"/>
<path d="M32 59C19.5 51 4.5 41 4.5 24.5 4.5 13.8 11 6.5 19.8 6.5 25.2 6.5 29.6 9 32 12.8 34.4 9 38.8 6.5 44.2 6.5 53 6.5 59.5 13.8 59.5 24.5 59.5 41 44.5 51 32 59Z" fill="#9e2c2a" transform="translate(0 2.5)"/>
<path d="M32 59C19.5 51 4.5 41 4.5 24.5 4.5 13.8 11 6.5 19.8 6.5 25.2 6.5 29.6 9 32 12.8 34.4 9 38.8 6.5 44.2 6.5 53 6.5 59.5 13.8 59.5 24.5 59.5 41 44.5 51 32 59Z" fill="#de4f44"/>
<g fill="none" stroke="#fdfaf4" stroke-linecap="round">
<path d="M23.6 23.2C23.6 20.6 27.2 18.8 32 18.8 37 18.8 40.6 21.5 40.6 25.2 40.6 28.8 36.6 30 34.2 31.4 32.8 32.2 32 33 32 34" stroke-width="5.2"/>
<path d="M38.2 20.6C39.7 21.8 40.6 23.4 40.6 25.2 40.6 27 39.6 28.2 38.3 29.1" stroke-width="8"/>
</g>
<g fill="#fdfaf4">
<circle cx="23.8" cy="23.8" r="4.2"/>
<circle cx="32" cy="44.5" r="3.9"/>
</g>
</svg>
